# AST/ASF file generated using VICON BodyLanguage
# -----------------------------------------------
:version 1.10
:name VICON
:units
  mass 1.0
  length 0.45
  angle deg
:documentation
   .ast/.asf automatically generated from VICON data using
   VICON BodyBuilder and BodyLanguage model FoxedUp or BRILLIANT.MOD
:root
   order TX TY TZ RX RY RZ
   axis XYZ
   position 0 0 0  
   orientation 0 0 0 
:bonedata
  begin
     id 1 
     name lhipjoint
     direction 0.722297 -0.617336 0.311742 
     length 2.6635 
     axis 0 0 0  XYZ
  end
  begin
     id 2 
     name lfemur
     direction 0.34202 -0.939693 0  
     length 7.39349  
     axis 0 0 20  XYZ
    dof rx ry rz
    limits (-160.0 20.0)
           (-70.0 70.0)
           (-60.0 70.0)
  end
  begin
     id 3 
     name ltibia
     direction 0.34202 -0.939693 0   
     length 7.36294   
     axis 0 0 20   XYZ
    dof rx
    limits (-10.0 170.0)
  end
  begin
     id 4 
     name lfoot
     direction 0.104879 -0.288152 0.951824   
     length 2.16981   
     axis -90 7.62852e-016 20   XYZ
    dof rx rz
    limits (-45.0 90.0)
           (-70.0 20.0)
  end
  begin
     id 5 
     name ltoes
     direction 1.53586e-011 -4.21895e-011 1   
     length 1.08218   
     axis -90 7.62852e-016 20   XYZ
    dof rx
    limits (-90.0 20.0)
  end
  begin
     id 6 
     name rhipjoint
     direction -0.75102 -0.589393 0.297631   
     length 2.78977  
     axis 0 0 0  XYZ 
  end
  begin
     id 7 
     name rfemur
     direction -0.34202 -0.939693 0   
     length 7.46076   
     axis 0 0 -20   XYZ
    dof rx ry rz
    limits (-160.0 20.0)
           (-70.0 70.0)
           (-70.0 60.0)
  end
  begin
     id 8 
     name rtibia
     direction -0.34202 -0.939693 0   
     length 7.31726   
     axis 0 0 -20   XYZ
    dof rx
    limits (-10.0 170.0)
 end
 begin
     id 9 
     name rfoot
     direction -0.107991 -0.296704 0.948844   
     length 2.09388  
     axis -90 -7.62852e-016 -20   XYZ
    dof rx rz
    limits (-45.0 90.0)
           (-20.0 70.0)
  end
  begin
     id 10 
     name rtoes
     direction -1.53559e-011 -4.21911e-011 1   
     length 1.04433   
     axis -90 -7.62852e-016 -20   XYZ
    dof rx
    limits (-90.0 20.0)
  end
  begin
     id 11 
     name lowerback
     direction 0.0165164 0.98272 0.184358   
     length 1.71896   
     axis 0 0 0   XYZ
    dof rx ry rz
    limits (-20.0 45.0)
           (-30.0 30.0)
           (-30.0 30.0)
  end
  begin
     id 12 
     name upperback
     direction -0.00887249 0.992297 0.123566   
     length 1.71504   
     axis 0 0 0   XYZ
    dof rx ry rz
    limits (-20.0 45.0)
           (-30.0 30.0)
           (-30.0 30.0)
  end
  begin
     id 13 
     name thorax
     direction -0.0157026 0.998908 0.0440032   
     length 1.77022   
     axis 0 0 0   XYZ
    dof rx ry rz
    limits (-20.0 45.0)
           (-30.0 30.0)
           (-30.0 30.0)
  end
  begin
     id 14 
     name lowerneck
     direction -0.0238856 0.998137 0.0561411   
     length 1.89341   
     axis 0 0 0   XYZ
    dof rx ry rz
    limits (-20.0 45.0)
           (-30.0 30.0)
           (-30.0 30.0)
  end
  begin
     id 15 
     name upperneck
     direction 0.0276574 0.952253 -0.304056   
     length 1.86999   
     axis 0 0 0   XYZ
    dof rx ry rz
    limits (-20.0 45.0)
           (-30.0 30.0)
           (-30.0 30.0)
  end
  begin
     id 16
     name head
     direction 0.00800083 0.994258 -0.106712  
     length 1.91492  
     axis 0 0 0   XYZ
    dof rx ry rz
    limits (-20.0 45.0)
           (-30.0 30.0)
           (-30.0 30.0)
  end
  begin
     id 17 
     name lclavicle
     direction 0.97203 0.225407 0.06595  
     length 3.34889  
     axis 0 0 0   XYZ
    dof ry rz
    limits (-20.0 10.0)
           (0.0 20.0)
  end
  begin
     id 18 
     name lhumerus
     direction 1 -4.48973e-011 2.20267e-027   
     length 4.85645   
     axis 180 -30 -90   XYZ
    dof rx ry rz
    limits (-60.0 90.0)
           (-90.0 90.0)
           (-90.0 90.0)
  end
  begin
     id 19
     name lradius
     direction 1 -4.4897e-011 4.60472e-027   
     length 2.79874   
     axis 180 -30 -90   XYZ
    dof rx
    limits (-10.0 170.0)
  end
  begin
     id 20
     name lwrist
     direction 1 -4.48952e-011 1.14928e-026   
     length 1.39937   
     axis -6.29373e-015 90 90   XYZ
    dof ry
    limits (-180.0 0.0)
 end
  begin
     id 21 
     name lhand
     direction 1 -4.48967e-011 2.29886e-026   
     length 0.573398   
     axis -1.46689e-014 90 90   XYZ
    dof rx rz
    limits (-90.0 90.0)
           (-45.0 45.0)
  end
  begin
     id 22 
     name lfingers
     direction 1 -4.48955e-011 4.59726e-026   
     length 0.462289   
     axis -2.93383e-014 90 90   XYZ
    dof rx
    limits (0.0 90.0)
  end
  begin
     id 23
     name lthumb
     direction 0.707107 -6.34866e-011 0.707107   
     length 0.663757   
     axis -90 45 5.69224e-014   XYZ
    dof rx rz
    limits (-45.0 45.0)
           (-45.0 45.0)
  end
  begin
     id 24 
     name rclavicle
     direction -0.981571 0.157346 0.108443   
     length 3.35257  
     axis 0 0 0   XYZ 
    dof ry rz
    limits (-10.0 20.0)
           (-20.0 0.0)
  end
  begin
     id 25 
     name rhumerus
     direction -1 -4.48967e-011 8.58308e-029  
     length 4.67018   
     axis 180 30 90   XYZ
    dof rx ry rz
    limits (-90.0 60.0)
           (-90.0 90.0)
           (-90.0 90.0)
  end
  begin
     id 26 
     name rradius
     direction -1 -4.48958e-011 4.52548e-027   
     length 2.65534   
     axis 180 30 90   XYZ
    dof rx
    limits (-10.0 170.0)
  end
  begin
     id 27 
     name rwrist
     direction -1 -4.48977e-011 1.14952e-026   
     length 1.32767   
     axis -6.29373e-015 -90 -90   XYZ
    dof ry
    limits (-180.0 0.0)
  end
  begin
     id 28
     name rhand
     direction -1 -4.48924e-011 2.29804e-026   
     length 0.594069   
     axis -1.46689e-014 -90 -90   XYZ
    dof rx rz
    limits (-90.0 90.0)
           (-45.0 45.0)
  end
  begin
     id 29
     name rfingers
     direction -1 -4.48998e-011 4.59888e-026   
     length 0.478954   
     axis -2.93383e-014 -90 -90   XYZ
    dof rx
    limits (0.0 90.0)
  end
  begin
     id 30
     name rthumb
     direction -0.707107 -6.34933e-011 0.707107   
     length 0.687685   
     axis -90 -45 -5.69224e-014   XYZ
    dof rx rz
    limits (-45.0 45.0)
           (-45.0 45.0)
  end
:hierarchy
  begin
    root lhipjoint rhipjoint lowerback
    lhipjoint lfemur
    lfemur ltibia
    ltibia lfoot
    lfoot ltoes
    rhipjoint rfemur
    rfemur rtibia
    rtibia rfoot
    rfoot rtoes
    lowerback upperback
    upperback thorax
    thorax lowerneck lclavicle rclavicle
    lowerneck upperneck
    upperneck head
    lclavicle lhumerus
    lhumerus lradius
    lradius lwrist
    lwrist lhand lthumb
    lhand lfingers
    rclavicle rhumerus
    rhumerus rradius
    rradius rwrist
    rwrist rhand rthumb
    rhand rfingers
  end

#!OML:ASF E:\pregnant2\Project 1\Capture day 1\Session 1\pregnant2.ASF
:FULLY-SPECIFIED
:DEGREES
456
root 4.17594 17.1423 44.614 29.424 18.0264 -1.58924
lowerback -15.683 1.62483 0.498535
upperback -14.2784 2.33516 -0.213162
thorax -6.5308 1.23782 -0.293515
lowerneck -8.59036 13.5829 17.149
upperneck 23.9029 17.2913 -4.11999
head 11.0523 9.12786 -1.83539
rclavicle -3.64087e-014 -1.78906e-015
rhumerus -60.2276 46.0342 -80.1232
rradius 68.385
rwrist -13.003
rhand -0.262537 -13.3593
rfingers 7.12502
rthumb 25.3389 -41.6959
lclavicle -3.64087e-014 -1.78906e-015
lhumerus -63.5402 -57.9414 87.2973
lradius 91.3629
lwrist 6.43007
lhand -0.723362 20.4043
lfingers 7.12502
lthumb 24.8973 48.8028
rfemur -35.1085 13.4777 16.371
rtibia 19.5326
rfoot -13.1572 -19.6365
rtoes -1.58023
lfemur -38.9834 -15.2678 -13.6121
ltibia 22.1377
lfoot -7.39632 15.9175
ltoes -17.1996
457
root 4.18313 17.1429 44.6157 29.4383 17.795 -1.58541
lowerback -15.6658 1.58803 0.599946
upperback -14.244 2.27239 -0.179267
thorax -6.49864 1.19704 -0.319538
lowerneck -8.55471 13.7026 17.2421
upperneck 23.955 17.4959 -4.26868
head 11.1137 9.2134 -1.86297
rclavicle -1.61513e-015 2.19906e-014
rhumerus -62.1468 45.8852 -81.2703
rradius 70.3575
rwrist -14.4994
rhand 0.406674 -13.1707
rfingers 7.12502
rthumb 25.9798 -41.4149
lclavicle -1.61513e-015 2.19906e-014
lhumerus -65.4036 -57.9561 89.3774
lradius 92.2559
lwrist 7.17128
lhand -0.301148 20.5798
lfingers 7.12502
lthumb 25.3019 48.9217
rfemur -35.1502 13.5367 16.2853
rtibia 19.5398
rfoot -13.1222 -19.5224
rtoes -1.66631
lfemur -38.9148 -15.1899 -13.706
ltibia 22.0984
lfoot -7.40063 16.0283
ltoes -17.1274
458
root 4.19 17.1434 44.618 29.4562 17.5618 -1.57958
lowerback -15.6594 1.5629 0.709892
upperback -14.2025 2.22348 -0.162996
thorax -6.45194 1.16177 -0.36723
lowerneck -8.56961 13.8208 17.3202
upperneck 24.0321 17.6832 -4.37929
head 11.1872 9.29237 -1.8738
rclavicle -2.08258e-014 1.95554e-014
rhumerus -64.0131 45.6376 -82.4208
rradius 72.2834
rwrist -15.9961
rhand 0.999737 -13.0148
rfingers 7.12502
rthumb 26.5476 -41.1744
lclavicle -2.08258e-014 1.95554e-014
lhumerus -67.1623 -57.9228 91.3598
lradius 93.0639
lwrist 7.95882
lhand 0.0518616 20.8085
lfingers 7.12502
lthumb 25.64 49.1021
rfemur -35.1941 13.5983 16.1963
rtibia 19.5464
rfoot -13.0872 -19.408
rtoes -1.75386
lfemur -38.8517 -15.1098 -13.8014
ltibia 22.0651
lfoot -7.40738 16.1403
ltoes -17.0578
459
root 4.19631 17.1439 44.6204 29.474 17.3319 -1.57601
lowerback -15.6548 1.54538 0.828245
upperback -14.1568 2.18332 -0.159351
thorax -6.39862 1.12969 -0.432064
lowerneck -8.61896 13.9385 17.3911
upperneck 24.1227 17.8578 -4.46045
head 11.2678 9.36686 -1.87251
rclavicle -1.10819e-013 -4.16205e-015
rhumerus -65.8215 45.3124 -83.5776
rradius 74.1557
rwrist -17.4507
rhand 1.49791 -12.9038
rfingers 7.12502
rthumb 27.0243 -40.9904
lclavicle -1.10819e-013 -4.16205e-015
lhumerus -68.8126 -57.8402 93.2364
lradius 93.7868
lwrist 8.77727
lhand 0.352439 21.0772
lfingers 7.12502
lthumb 25.9279 49.329
rfemur -35.2407 13.6686 16.108
rtibia 19.5563
rfoot -13.0574 -19.3021
rtoes -1.82631
lfemur -38.7888 -15.0234 -13.8951
ltibia 22.0342
lfoot -7.42245 16.2467
ltoes -16.9817
460
root 4.20181 17.1442 44.6228 29.492 17.1017 -1.5654
lowerback -15.6422 1.53077 0.940194
upperback -14.1135 2.14747 -0.169011
thorax -6.35231 1.09974 -0.5074
lowerneck -8.66973 14.0527 17.4689
upperneck 24.2096 18.0206 -4.52354
head 11.3452 9.43812 -1.86759
rclavicle -7.39075e-015 -1.53561e-014
rhumerus -67.5841 44.9189 -84.7548
rradius 75.9675
rwrist -18.7947
rhand 1.89353 -12.8295
rfingers 7.12502
rthumb 27.4028 -40.8568
lclavicle -7.39075e-015 -1.53561e-014
lhumerus -70.3736 -57.7016 95.0122
lradius 94.4305
lwrist 9.60223
lhand 0.598994 21.3706
lfingers 7.12502
lthumb 26.164 49.5876
rfemur -35.2909 13.7492 16.0095
rtibia 19.5719
rfoot -13.0281 -19.2078
rtoes -1.89794
lfemur -38.727 -14.9393 -13.9926
ltibia 22.0034
lfoot -7.43453 16.3521
ltoes -16.9204
461
root 4.20651 17.1442 44.625 29.5089 16.876 -1.55252
lowerback -15.6217 1.51395 1.0486
upperback -14.0786 2.10919 -0.186501
thorax -6.31976 1.0685 -0.589781
lowerneck -8.68879 14.1623 17.5676
upperneck 24.2811 18.1762 -4.57998
head 11.4121 9.50921 -1.86677
rclavicle -4.12905e-014 -4.93234e-015
rhumerus -69.3129 44.4794 -85.9717
rradius 77.7033
rwrist -19.9712
rhand 2.16811 -12.7564
rfingers 7.12502
rthumb 27.6654 -40.7419
lclavicle -4.12905e-014 -4.93234e-015
lhumerus -71.8614 -57.4934 96.689
lradius 94.9987
lwrist 10.4071
lhand 0.798282 21.68
lfingers 7.12502
lthumb 26.3548 49.8687
rfemur -35.344 13.8369 15.9085
rtibia 19.5931
rfoot -13.0047 -19.1245
rtoes -1.96457
lfemur -38.6702 -14.8647 -14.0822
ltibia 21.9724
lfoot -7.44263 16.4626
ltoes -16.8548
462
root 4.21058 17.144 44.627 29.526 16.663 -1.54032
lowerback -15.5985 1.49098 1.15754
upperback -14.0523 2.06299 -0.206856
thorax -6.29877 1.03311 -0.676595
lowerneck -8.67033 14.2691 17.6902
upperneck 24.3338 18.3298 -4.6382
head 11.4678 9.58211 -1.87293
rclavicle -6.44311e-014 -1.55301e-014
rhumerus -70.9952 44.0041 -87.2218
rradius 79.3486
rwrist -20.9465
rhand 2.33186 -12.6666
rfingers 7.12502
rthumb 27.8219 -40.6269
lclavicle -6.44311e-014 -1.55301e-014
lhumerus -73.2706 -57.2099 98.2586
lradius 95.4935
lwrist 11.1711
lhand 0.954645 21.9965
lfingers 7.12502
lthumb 26.5044 50.1627
rfemur -35.4001 13.9232 15.8124
rtibia 19.6207
rfoot -12.9861 -19.0492
rtoes -2.03277
lfemur -38.6216 -14.8028 -14.1576
ltibia 21.9388
lfoot -7.44306 16.5733
ltoes -16.7882
463
root 4.21422 17.1436 44.6288 29.5424 16.4628 -1.52784
lowerback -15.5744 1.4614 1.26598
upperback -14.0361 2.00849 -0.227203
thorax -6.29024 0.993583 -0.764205
lowerneck -8.59244 14.3702 17.8397
upperneck 24.3571 18.4827 -4.70701
head 11.5055 9.65748 -1.89134
rclavicle -1.01768e-014 -3.08365e-014
rhumerus -72.6196 43.4947 -88.4886
rradius 80.8973
rwrist -21.7284
rhand 2.42913 -12.5682
rfingers 7.12502
rthumb 27.9149 -40.5134
lclavicle -1.01768e-014 -3.08365e-014
lhumerus -74.6097 -56.8509 99.728
lradius 95.9177
lwrist 11.8746
lhand 1.06332 22.3145
lfingers 7.12502
lthumb 26.6084 50.4649
rfemur -35.4551 13.9972 15.7249
rtibia 19.6515
rfoot -12.9693 -18.9705
rtoes -2.11313
lfemur -38.5772 -14.7509 -14.2244
ltibia 21.9031
lfoot -7.43937 16.6829
ltoes -16.7223
464
root 4.21745 17.1434 44.6306 29.5564 16.2724 -1.51474
lowerback -15.5512 1.42966 1.3706
upperback -14.0204 1.95167 -0.247501
thorax -6.28226 0.953278 -0.849854
lowerneck -8.50003 14.4687 17.9915
upperneck 24.3648 18.6324 -4.77252
head 11.5344 9.7322 -1.91081
rclavicle -3.04078e-015 -3.67752e-015
rhumerus -74.1536 42.9413 -89.7365
rradius 82.3417
rwrist -22.322
rhand 2.4807 -12.4406
rfingers 7.12502
rthumb 27.9642 -40.3778
lclavicle -3.04078e-015 -3.67752e-015
lhumerus -75.8388 -56.4302 101.069
lradius 96.2794
lwrist 12.5113
lhand 1.13497 22.6399
lfingers 7.12502
lthumb 26.677 50.7799
rfemur -35.5064 14.0638 15.6428
rtibia 19.6836
rfoot -12.9542 -18.889
rtoes -2.17783
lfemur -38.5303 -14.7033 -14.2886
ltibia 21.8646
lfoot -7.43348 16.7877
ltoes -16.6597
465
root 4.22038 17.1433 44.6323 29.5678 16.0901 -1.5021
lowerback -15.5288 1.3967 1.47114
upperback -14.0073 1.89393 -0.265773
thorax -6.27737 0.913014 -0.931211
lowerneck -8.38136 14.563 18.1493
upperneck 24.3527 18.7803 -4.84286
head 11.5521 9.80683 -1.93545
rclavicle 1.58003e-014 1.65985e-014
rhumerus -75.5898 42.3463 -90.95
rradius 83.679
rwrist -22.756
rhand 2.51729 -12.2825
rfingers 7.12502
rthumb 27.9992 -40.2139
lclavicle 1.58003e-014 1.65985e-014
lhumerus -76.9719 -55.9543 102.295
lradius 96.5812
lwrist 13.0795
lhand 1.16565 22.9688
lfingers 7.12502
lthumb 26.7064 51.1043
rfemur -35.5526 14.121 15.5674
rtibia 19.7139
rfoot -12.942 -18.8006
rtoes -2.22947
lfemur -38.4826 -14.6572 -14.351
ltibia 21.8261
lfoot -7.42816 16.8883
ltoes -16.5974
466
root 4.22301 17.1432 44.6341 29.5818 15.908 -1.48878
lowerback -15.5139 1.36707 1.56386
upperback -13.9966 1.84147 -0.284595
thorax -6.27165 0.876171 -1.00813
lowerneck -8.24274 14.6506 18.3096
upperneck 24.3223 18.9217 -4.91649
head 11.5592 9.87897 -1.96472
rclavicle -1.07779e-015 -2.59166e-014
rhumerus -76.9227 41.7008 -92.1111
rradius 84.9167
rwrist -23.0629
rhand 2.55637 -12.0932
rfingers 7.12502
rthumb 28.0366 -40.0185
lclavicle -1.07779e-015 -2.59166e-014
lhumerus -77.9978 -55.4282 103.397
lradius 96.8323
lwrist 13.5801
lhand 1.1558 23.2975
lfingers 7.12502
lthumb 26.697 51.4345
rfemur -35.601 14.1668 15.4958
rtibia 19.7431
rfoot -12.9291 -18.698
rtoes -2.27661
lfemur -38.4391 -14.6115 -14.4129
ltibia 21.7883
lfoot -7.41907 16.9907
ltoes -16.546
467
root 4.22524 17.1433 44.6361 29.596 15.7249 -1.47887
lowerback -15.5044 1.34173 1.64774
upperback -13.9885 1.79579 -0.301327
thorax -6.26623 0.84372 -1.07715
lowerneck -8.09469 14.7323 18.4662
upperneck 24.2827 19.0563 -4.98804
head 11.5598 9.94834 -1.99498
rclavicle 4.77611e-014 2.75814e-014
rhumerus -78.1538 41.0131 -93.2125
rradius 86.0624
rwrist -23.2927
rhand 2.60548 -11.887
rfingers 7.12502
rthumb 28.0835 -39.8047
lclavicle 4.77611e-014 2.75814e-014
lhumerus -78.9244 -54.8655 104.387
lradius 97.0321
lwrist 14.0308
lhand 1.11258 23.6271
lfingers 7.12502
lthumb 26.6556 51.7703
rfemur -35.6516 14.2157 15.4264
rtibia 19.7719
rfoot -12.9198 -18.5915
rtoes -2.3021
lfemur -38.3946 -14.5605 -14.4737
ltibia 21.7521
lfoot -7.41022 17.0935
ltoes -16.5043
468
root 4.2269 17.1433 44.6382 29.6141 15.5344 -1.4655
lowerback -15.4998 1.32206 1.71203
upperback -13.9807 1.75966 -0.318811
thorax -6.25898 0.817818 -1.135
lowerneck -7.94801 14.8075 18.6136
upperneck 24.2341 19.1815 -5.05525
head 11.5548 10.013 -2.02452
rclavicle 2.3087e-014 4.47266e-015
rhumerus -79.2761 40.282 -94.2376
rradius 87.132
rwrist -23.4762
rhand 2.65448 -11.6792
rfingers 7.12502
rthumb 28.1303 -39.5891
lclavicle 2.3087e-014 4.47266e-015
lhumerus -79.7404 -54.2763 105.259
lradius 97.188
lwrist 14.445
lhand 1.04837 23.9563
lfingers 7.12502
lthumb 26.5941 52.1089
rfemur -35.709 14.2662 15.3515
rtibia 19.8015
rfoot -12.9087 -18.4792
rtoes -2.3288
lfemur -38.3537 -14.5048 -14.5397
ltibia 21.7177
lfoot -7.39673 17.1991
ltoes -16.4788
469
root 4.22805 17.1431 44.6404 29.6364 15.3371 -1.45017
lowerback -15.5017 1.30932 1.76015
upperback -13.9737 1.7343 -0.338468
thorax -6.24923 0.798747 -1.18493
lowerneck -7.80566 14.8758 18.7533
upperneck 24.1787 19.2957 -5.11793
head 11.5454 10.0725 -2.05344
rclavicle 2.7364e-014 8.05078e-015
rhumerus -80.3022 39.5153 -95.1957
rradius 88.1354
rwrist -23.649
rhand 2.68142 -11.4894
rfingers 7.12502
rthumb 28.1561 -39.3952
lclavicle 2.7364e-014 8.05078e-015
lhumerus -80.4517 -53.6731 106.023
lradius 97.2988
lwrist 14.838
lhand 0.966614 24.2781
lfingers 7.12502
lthumb 26.5159 52.4425
rfemur -35.7731 14.3156 15.2741
rtibia 19.8314
rfoot -12.8949 -18.3602
rtoes -2.3614
lfemur -38.318 -14.4471 -14.6071
ltibia 21.6873
lfoot -7.38355 17.3107
ltoes -16.4569
470
root 4.22887 17.143 44.6426 29.6578 15.1417 -1.43397
lowerback -15.5003 1.30296 1.79966
upperback -13.9665 1.71844 -0.360503
thorax -6.24083 0.785163 -1.23173
lowerneck -7.68471 14.9399 18.8764
upperneck 24.1283 19.3987 -5.165
head 11.5369 10.1266 -2.07521
rclavicle -2.32081e-014 7.65321e-015
rhumerus -81.2413 38.7244 -96.0931
rradius 89.0828
rwrist -23.8316
rhand 2.65578 -11.3304
rfingers 7.12502
rthumb 28.1316 -39.2402
lclavicle -2.32081e-014 7.65321e-015
lhumerus -81.057 -53.0647 106.681
lradius 97.3683
lwrist 15.2189
lhand 0.880806 24.5963
lfingers 7.12502
lthumb 26.4338 52.7731
rfemur -35.8353 14.357 15.2014
rtibia 19.8623
rfoot -12.8784 -18.2344
rtoes -2.40914
lfemur -38.2828 -14.3914 -14.6737
ltibia 21.6592
lfoot -7.3696 17.4234
ltoes -16.4367
